<svg width="1191" height="324" viewBox="0 0 1191 324" fill="none" xmlns="http://www.w3.org/2000/svg">
<path d="M1164.37 268L1139.38 293L1164.37 318L1189.38 293L1164.37 268Z" fill="black"/>
<path d="M0 311.614C3.35356 311.614 7.012 311.248 10.9753 310.456C14.9386 309.695 18.597 308.02 21.9506 305.431C25.3042 302.842 28.048 298.974 30.1821 293.765C32.3162 288.588 33.3832 281.582 33.3832 272.75V168.127C33.3832 159.294 32.2247 152.288 29.9687 147.111C27.6821 141.933 24.8469 138.065 21.5238 135.445C18.1702 132.856 14.5728 131.181 10.7924 130.42C6.98151 129.658 3.38405 129.262 0.0609739 129.262V125.15H46.706C51.8888 125.15 57.1325 128.805 62.4677 136.115C67.803 143.425 70.4553 155.304 70.4553 171.751V272.719C70.4553 281.552 71.5224 288.557 73.6564 293.735C75.7905 298.913 78.5344 302.811 81.8879 305.4C85.2415 307.989 88.8999 309.665 92.8632 310.426C96.8265 311.187 100.485 311.583 103.839 311.583V315.695H0.0304869V311.583H0V311.614Z" fill="black"/>
<path d="M124.84 129.778V125.21H171.485C175.753 125.21 180.235 127.951 184.96 133.433C189.686 138.916 192.795 147.749 194.35 159.932C201.362 148.053 209.959 138.764 220.203 132.063C230.416 125.362 242.519 122.012 256.543 122.012C269.043 122.012 279.713 123.535 288.555 126.58C297.396 129.626 304.621 134.104 310.261 140.043C315.901 145.982 320.322 153.444 323.523 162.429C326.724 171.414 329.072 181.709 330.627 193.253L341.145 273.205C342.364 282.038 344.132 288.952 346.419 294.008C348.705 299.064 351.358 302.84 354.406 305.429C357.455 308.018 360.717 309.693 364.254 310.455C367.76 311.216 371.174 311.612 374.558 311.612V315.724H270.75V311.612C274.104 311.612 277.976 311.247 282.427 310.455C286.847 309.693 290.811 308.018 294.317 305.429C297.823 302.84 300.628 298.972 302.762 293.764C304.896 288.586 305.353 281.733 304.134 273.205L293.616 193.253C292.396 182.897 290.933 173.912 289.286 166.298C287.61 158.683 285.171 152.348 281.97 147.322C278.768 142.297 274.561 138.581 269.409 136.144C264.226 133.708 257.214 132.489 248.373 132.489C235.264 132.489 224.197 136.236 215.203 143.698C206.209 151.16 199.563 162.368 195.295 177.262V273.205C195.295 282.038 196.362 288.952 198.496 294.008C200.63 299.033 203.374 302.84 206.728 305.429C210.081 308.018 213.74 309.693 217.703 310.455C221.666 311.216 225.325 311.612 228.678 311.612V315.724H124.87V311.612C128.224 311.612 131.882 311.247 135.846 310.455C139.809 309.693 143.467 308.018 146.821 305.429C150.174 302.84 152.918 299.033 155.052 294.008C157.186 288.982 158.254 282.068 158.254 273.205V168.125C158.254 159.292 157.095 152.287 154.839 147.109C152.552 141.931 149.717 138.063 146.394 135.444C143.041 132.855 139.443 131.271 135.663 130.631C131.852 130.022 128.254 129.718 124.931 129.718L124.84 129.778Z" fill="black"/>
<path d="M564.32 315.727C553.04 315.727 544.199 309.178 537.797 296.082C530.785 305.523 522.309 312.468 512.401 316.884C502.493 321.301 491.121 323.494 478.347 323.494C465.573 323.494 454.11 321.575 442.22 317.768C430.33 313.96 419.721 308.021 410.422 299.95C401.124 291.878 393.655 281.431 388.014 268.639C382.374 255.847 379.539 240.465 379.539 222.495C379.539 191.428 387.771 166.909 404.233 148.939C420.696 130.969 442.342 121.984 469.171 121.984C481.67 121.984 494.018 125.182 506.212 131.578C518.407 137.974 527.248 147.264 532.736 159.447V42.4888C532.736 33.9606 531.73 27.1989 529.779 22.1734C527.797 17.1478 525.114 13.2797 521.791 10.508C518.438 7.76677 514.322 6.03067 509.444 5.26922C504.566 4.50777 499.383 4.11182 493.896 4.11182C490.237 4.11182 486.731 6.24388 483.378 10.508C480.024 14.7721 476.67 19.4931 473.317 24.6709C469.963 29.8488 466.61 34.5698 463.256 38.8339C459.903 43.098 456.549 45.23 453.195 45.23L451.824 13.7061C457.311 10.3557 464.689 7.24899 473.988 4.35548C483.286 1.46198 491.731 0 499.383 0C507.035 0 514.474 0.761448 522.706 2.28434C530.937 3.80724 538.559 6.54846 545.571 10.508C552.583 14.4675 558.375 19.9499 562.948 26.9553C567.522 33.9606 569.808 42.7934 569.808 53.4537L569.351 259.502V273.208C569.351 282.04 570.509 288.954 572.765 294.01C575.021 299.066 577.857 302.843 581.241 305.432C584.594 308.021 588.161 309.696 591.972 310.458C595.783 311.219 599.35 311.615 602.734 311.615V315.727H564.32ZM532.766 178.209C529.413 162.676 522.401 150.889 511.73 142.817C501.06 134.746 489.932 130.725 478.347 130.725C460.055 130.725 445.787 138.431 435.574 153.813C425.361 169.194 420.27 192.129 420.27 222.587C420.27 239.034 422.007 253.136 425.544 264.862C429.05 276.588 433.775 286.183 439.72 293.645C445.665 301.107 452.738 306.529 461 309.879C469.232 313.229 478.073 314.905 487.524 314.905C496.975 314.905 505.816 312.62 514.047 308.052C522.279 303.483 528.986 296.021 534.169 285.665C533.254 281.096 532.797 276.223 532.797 271.045V178.209H532.766Z" fill="black"/>
<path d="M626.054 311.614C629.408 311.614 633.066 311.248 637.029 310.456C640.993 309.695 644.651 308.02 648.005 305.431C651.358 302.842 654.102 298.974 656.236 293.765C658.37 288.588 659.437 281.582 659.437 272.75V168.127C659.437 159.294 658.279 152.288 656.023 147.111C653.736 141.933 650.901 138.065 647.547 135.445C644.194 132.856 640.596 131.181 636.785 130.42C632.974 129.658 629.377 129.262 626.054 129.262V125.15H672.699C677.882 125.15 683.126 128.805 688.461 136.115C693.796 143.425 696.448 155.304 696.448 171.751V272.719C696.448 281.552 697.515 288.557 699.649 293.735C701.784 298.913 704.527 302.811 707.881 305.4C711.234 307.989 714.893 309.665 718.856 310.426C722.819 311.187 726.478 311.583 729.831 311.583V315.695H626.023V311.583L626.054 311.614Z" fill="black"/>
<path d="M815.378 323.037C804.098 323.037 793.671 321.514 784.037 318.468C774.434 315.422 766.263 311.158 759.587 305.676C752.879 300.193 747.758 293.645 744.252 286.03C740.746 278.416 739.13 270.192 739.435 261.359C740.044 249.481 743.855 239.521 750.867 231.419C757.879 223.348 766.263 216.738 776.019 211.53C785.775 206.352 796.201 202.484 807.36 199.865C818.487 197.276 828.609 195.692 837.755 195.083C854.218 193.864 865.895 189.905 872.754 183.204C879.614 176.503 883.333 167.823 883.943 157.163C884.857 144.37 882.266 135.172 876.169 129.507C870.071 123.872 862.145 121.04 852.389 121.04C837.755 121.04 822.054 125.913 805.287 135.659C803.153 136.878 800.256 140.076 796.598 145.254C792.939 150.431 789.129 155.853 785.165 161.488C781.202 167.122 777.391 172.148 773.733 176.564C770.074 180.981 766.873 183.174 764.129 183.174L766.416 143.883C769.769 142.36 775.409 139.406 783.336 134.989C791.263 130.573 798.884 127.314 806.201 125.182C814.128 122.745 823.731 120.369 835.011 118.085C846.292 115.801 857.419 114.674 868.395 114.674C874.797 114.674 880.894 115.283 886.687 116.501C892.479 117.72 897.51 119.791 901.778 122.684C906.046 125.578 909.399 129.537 911.838 134.563C914.277 139.588 915.192 145.741 914.582 153.051C914.277 160.361 911.899 166.696 907.479 172.026C903.058 177.356 897.418 181.925 890.558 185.732C883.699 189.539 875.833 192.677 867.023 195.113C858.181 197.55 848.883 199.682 839.127 201.509C832.42 202.728 825.469 204.707 818.304 207.449C811.14 210.19 804.585 213.845 798.64 218.414C792.695 222.982 787.574 228.556 783.305 235.104C779.037 241.653 776.446 249.481 775.531 258.618C774.922 266.232 775.531 273.481 777.361 280.304C779.19 287.157 781.934 293.249 785.592 298.579C789.25 303.909 793.732 308.112 799.067 311.127C804.402 314.173 809.951 315.696 815.774 315.696C825.835 315.696 834.585 313.808 842.054 309.97C849.523 306.163 855.773 301.442 860.803 295.807C865.834 290.172 869.797 284.233 872.693 277.989C875.589 271.745 877.785 266.202 879.309 261.329L874.736 251.735C873.516 247.775 873.425 244.973 874.492 243.267C875.559 241.592 877.236 239.917 879.522 238.242C881.809 236.566 884.553 234.282 887.754 231.389C890.955 228.495 894.369 223.835 898.058 217.439L920.924 271.349C927.936 288.101 934.948 299.005 941.96 304C948.972 309.026 955.831 311.554 962.538 311.554L963.453 315.666H923.667C919.399 315.666 914.43 313.93 908.79 310.427C903.15 306.924 899.095 302.873 896.686 298.305L882.51 267.694C880.376 273.481 877.541 279.573 874.065 285.969C870.559 292.365 866.139 298.305 860.803 303.787C855.468 309.27 849.066 313.838 841.596 317.493C834.127 321.148 825.347 322.976 815.317 322.976L815.378 323.037Z" fill="black"/>
<path d="M972.654 272.781C976.618 272.781 979.971 275.005 982.715 279.391C985.459 283.807 989.026 288.772 993.477 294.254C997.897 299.736 1003.78 304.701 1011.07 309.118C1018.38 313.534 1028.45 315.727 1041.25 315.727C1056.19 315.727 1068.44 312.468 1078.08 305.919C1087.68 299.371 1092.47 290.934 1092.47 280.548C1092.47 272.02 1089.42 264.862 1083.32 259.075C1077.22 253.288 1069.51 248.11 1060.21 243.542C1050.91 238.973 1040.91 234.496 1030.24 230.079C1019.57 225.663 1009.57 220.698 1000.31 215.216C991.007 209.733 983.294 203.337 977.197 196.027C971.099 188.717 968.051 179.732 968.051 169.072C968.051 160.239 970.185 152.868 974.453 146.929C978.721 140.99 984.209 136.177 990.916 132.522C997.623 128.867 1005.24 126.218 1013.78 124.542C1022.32 122.867 1030.85 122.045 1039.39 122.045C1044.27 122.045 1049.82 122.258 1056.1 122.715C1062.35 123.172 1068.44 123.72 1074.39 124.329C1080.33 124.938 1085.82 125.7 1090.85 126.614C1095.88 127.527 1099.6 128.289 1102.07 128.898L1100.7 168.189C1096.43 168.189 1092.71 165.996 1089.51 161.579C1086.31 157.163 1082.65 152.381 1078.54 147.203C1074.42 142.025 1069.45 137.243 1063.66 132.797C1057.87 128.38 1050.24 126.187 1040.79 126.187C1038.05 126.187 1034.54 126.492 1030.27 127.101C1026.01 127.71 1021.89 129.02 1017.93 131C1013.96 132.979 1010.52 135.812 1007.62 139.436C1004.73 143.091 1003.29 147.812 1003.29 153.599C1003.29 162.128 1006.34 169.285 1012.44 175.072C1018.54 180.859 1026.16 185.976 1035.3 190.393C1044.45 194.809 1054.42 199.073 1065.27 203.185C1076.1 207.297 1086.1 211.865 1095.24 216.891C1104.39 221.916 1112.01 227.856 1118.11 234.709C1124.2 241.562 1127.25 250.181 1127.25 260.507C1127.25 268.73 1125.03 276.649 1120.61 284.264C1116.19 291.878 1109.94 298.518 1101.86 304.122C1093.78 309.757 1084.02 314.265 1072.59 317.585C1061.16 320.935 1048.57 322.61 1034.85 322.61C1020.21 322.61 1007.47 321.24 996.678 318.499C985.855 315.757 977.38 313.625 971.282 312.102L972.654 272.812V272.781Z" fill="black"/>
<path d="M45.375 40L17.375 68L45.375 96L73.375 68L45.375 40Z" fill="black"/>
<path d="M1038.9 27.9479C1052.62 34.5064 1060.65 45.0096 1077.09 46.4829C1079.45 46.7047 1080.66 47.9879 1080.73 50.3325L1081.25 66.8002C1081.3 68.5745 1080.43 69.4696 1078.66 69.4854C1060.93 69.628 1048.6 61.9763 1034.82 52.091C1023.43 43.9403 1008.27 42.063 995.727 46.6968C984.012 51.0216 975.647 61.2872 963.671 65.2794C947.385 70.7448 931.726 70.8399 916.692 65.5645C907.804 62.4516 900.058 56.1782 892.145 50.7602C880.239 42.6333 864.437 41.6353 851.486 47.2671C844.096 50.4751 836.112 57.6277 828.317 62.0239C820.127 66.6814 811.034 69.0498 801.038 69.129C799.2 69.1448 798.289 68.2339 798.305 66.3962L798.376 49.881C798.376 47.8057 799.414 46.7206 801.489 46.6255C809.505 46.2295 817.315 43.1561 824.919 37.4055C846.67 20.8982 869.015 17.0961 891.954 25.9993C900.652 29.3736 908.066 34.8153 915.765 40.0907C927.124 47.8374 941.548 49.3583 954.285 44.6294C964.217 40.9224 972.083 32.1064 982.063 27.5914C1001.3 18.8783 1020.24 18.9972 1038.9 27.9479Z" fill="black"/>
<path d="M670.375 39L642.375 67L670.375 95L698.375 67L670.375 39Z" fill="black"/>
</svg>
